<?xml version="1.0" encoding="UTF-8"?><svg id="Layer_2" xmlns="http://www.w3.org/2000/svg" width="195.59" height="19.84" viewBox="0 0 195.59 19.84"><g id="Layer_1-2"><path d="M6.65,9.4L.49.49h2.85l4.76,7.16L12.94.49h2.62l-6.1,9.01,6.82,9.86h-2.83l-5.47-8.03-5.31,8.03H0l6.66-9.96h-.01Z"/><path d="M18.65.49h12.21v2.14h-9.78v5.92h9.25v2.17h-9.25v6.5h10.28l-.4,2.14h-12.32V.49h.01Z"/><path d="M34.35.49h2.41l9.59,14.98V.49h2.35v18.87h-2.33l-9.67-14.91v14.91h-2.35V.49Z"/><path d="M60.91,19.84c-1.29,0-2.46-.22-3.53-.65s-1.98-1.07-2.75-1.9c-.77-.84-1.36-1.87-1.78-3.11s-.63-2.64-.63-4.23.22-3,.65-4.23,1.03-2.27,1.8-3.12,1.68-1.49,2.75-1.93S59.65.01,60.92.01s2.46.22,3.53.65,1.98,1.07,2.74,1.9c.76.84,1.35,1.87,1.77,3.09.42,1.22.63,2.63.63,4.22s-.21,3-.62,4.24-1,2.29-1.76,3.13c-.76.85-1.67,1.49-2.74,1.93-1.07.44-2.25.66-3.55.66h0ZM60.91,17.72c1,0,1.89-.18,2.66-.55s1.4-.89,1.92-1.57c.51-.68.9-1.5,1.16-2.46s.4-2.03.4-3.21-.13-2.22-.4-3.18c-.26-.96-.66-1.78-1.18-2.47s-1.16-1.22-1.92-1.59-1.64-.55-2.64-.55-1.92.18-2.68.55-1.41.9-1.93,1.59-.91,1.51-1.16,2.47c-.26.96-.38,2.02-.38,3.18s.13,2.25.38,3.21.64,1.78,1.15,2.46c.51.68,1.15,1.2,1.92,1.57s1.67.55,2.71.55h-.01Z"/><path d="M76.77,13.15c.11.88.43,1.54.98,1.97.55.43,1.35.65,2.4.65.9,0,1.57-.16,2.02-.48.45-.32.67-.77.67-1.35,0-.44-.15-.81-.45-1.1-.3-.29-.85-.52-1.64-.67l-2.51-.48c-2.1-.39-3.65-1.04-4.65-1.96-1-.92-1.51-2.18-1.51-3.81,0-1.96.67-3.43,2.02-4.43,1.35-1,3.2-1.49,5.56-1.49,1.38,0,2.55.16,3.52.48s1.76.74,2.38,1.27,1.08,1.14,1.4,1.84c.32.7.52,1.42.61,2.18l-4.92.5c-.16-.76-.46-1.32-.91-1.69s-1.15-.55-2.1-.55c-.86,0-1.5.15-1.92.44-.41.29-.62.68-.62,1.18,0,.44.17.79.5,1.06.33.26.87.47,1.61.61l2.56.5c2.22.44,3.8,1.15,4.73,2.13.93.98,1.4,2.22,1.4,3.71,0,.93-.16,1.78-.48,2.54s-.8,1.4-1.45,1.94c-.65.54-1.48.96-2.48,1.25-1,.3-2.18.45-3.54.45-5.23-.04-7.98-2.26-8.25-6.69h5.07Z"/><path d="M107.21,12.46c-.07,1.04-.29,2.01-.66,2.91s-.9,1.68-1.59,2.34-1.54,1.18-2.56,1.56-2.21.57-3.57.57c-1.53,0-2.86-.24-3.99-.71-1.13-.48-2.06-1.14-2.8-2.01s-1.29-1.9-1.67-3.11-.55-2.53-.55-3.98.19-2.83.57-4.06c.38-1.22.95-2.28,1.72-3.16s1.72-1.57,2.85-2.06c1.14-.49,2.47-.74,4-.74,2.33,0,4.14.58,5.46,1.73,1.31,1.15,2.14,2.8,2.5,4.93l-5.05.58c-.09-.41-.2-.78-.34-1.14s-.33-.66-.57-.91c-.24-.25-.53-.46-.88-.61s-.78-.22-1.27-.22c-2.41,0-3.62,1.84-3.62,5.52,0,1.02.09,1.89.26,2.6.18.71.43,1.29.75,1.73s.71.76,1.16.95.95.29,1.49.29c1.85,0,2.91-1,3.17-3.01h5.19Z"/><path d="M120.03.49l6.55,18.87h-5.26l-1.08-3.62h-6.37l-1.06,3.62h-5.1L114.26.49h5.77ZM115.11,11.7h3.88l-1.93-6.5-1.96,6.5h0Z"/><path d="M128.72.49h7.06c1.48,0,2.71.17,3.69.5s1.75.79,2.33,1.36c.57.57.97,1.24,1.2,2s.34,1.57.34,2.43-.12,1.71-.36,2.5c-.24.78-.65,1.47-1.23,2.06-.58.59-1.35,1.05-2.31,1.39-.96.33-2.16.5-3.61.5h-2.19v6.13h-4.92V.49ZM133.64,9.19h2.17c1.06,0,1.79-.2,2.21-.59s.62-.99.62-1.78-.21-1.37-.63-1.74-1.16-.55-2.22-.55h-2.14v4.68-.02Z"/><path d="M145.93.49h13.5v4.17h-8.56v3.01h8.03v4.17h-8.03v3.33h9.12l-.42,4.18h-13.64V.48h0Z"/><path d="M177.51,6.46c0,1.2-.23,2.25-.69,3.16s-1.16,1.64-2.11,2.21l3.86,7.53h-5.37l-3.09-6.5h-2.75v6.5h-4.84V.49h7.45c1.46,0,2.68.17,3.65.5s1.74.78,2.31,1.33c.57.56.98,1.19,1.22,1.92.24.72.36,1.46.36,2.22ZM167.36,8.92h2.48c1.02,0,1.74-.2,2.15-.59s.62-.96.62-1.71-.22-1.25-.66-1.64-1.2-.58-2.27-.58h-2.33v4.52h0Z"/><path d="M184.46,13.15c.11.88.43,1.54.98,1.97.55.43,1.35.65,2.4.65.9,0,1.57-.16,2.02-.48.45-.32.67-.77.67-1.35,0-.44-.15-.81-.45-1.1-.3-.29-.85-.52-1.64-.67l-2.51-.48c-2.1-.39-3.65-1.04-4.65-1.96-1-.92-1.51-2.18-1.51-3.81,0-1.96.67-3.43,2.02-4.43,1.35-1,3.2-1.49,5.56-1.49,1.38,0,2.55.16,3.52.48s1.76.74,2.38,1.27,1.08,1.14,1.4,1.84c.32.7.52,1.42.61,2.18l-4.92.5c-.16-.76-.46-1.32-.91-1.69s-1.15-.55-2.1-.55c-.86,0-1.5.15-1.92.44-.41.29-.62.68-.62,1.18,0,.44.17.79.5,1.06.33.26.87.47,1.61.61l2.56.5c2.22.44,3.8,1.15,4.73,2.13.93.98,1.4,2.22,1.4,3.71,0,.93-.16,1.78-.48,2.54s-.8,1.4-1.45,1.94c-.65.54-1.48.96-2.48,1.25-1,.3-2.18.45-3.54.45-5.23-.04-7.98-2.26-8.25-6.69h5.07Z"/></g></svg>